<svg width="757" height="397" viewBox="0 0 757 397" fill="none" xmlns="http://www.w3.org/2000/svg">
<rect width="757" height="397" fill="#6F6E6A"/>
<path d="M107.36 123L154.1 0.63999H177.28L223.64 123H202.36L190.2 91.46H140.99L128.83 123H107.36ZM144.22 75.5H186.78L165.5 19.45L144.22 75.5ZM244.007 123V0.63999H298.537C307.91 0.63999 315.637 2.41332 321.717 5.95999C327.797 9.50666 332.294 14.3833 335.207 20.59C338.12 26.67 339.577 33.6367 339.577 41.49C339.577 53.65 335.777 63.4033 328.177 70.75C320.704 78.0967 310.57 81.77 297.777 81.77H264.717V123H244.007ZM264.717 65.43H293.977C302.21 65.43 308.417 63.2767 312.597 58.97C316.777 54.6633 318.867 48.8367 318.867 41.49C318.867 33.6367 316.84 27.5567 312.787 23.25C308.86 18.9433 302.907 16.79 294.927 16.79H264.717V65.43ZM356.077 123V0.63999H410.607C419.981 0.63999 427.707 2.41332 433.787 5.95999C439.867 9.50666 444.364 14.3833 447.277 20.59C450.191 26.67 451.647 33.6367 451.647 41.49C451.647 53.65 447.847 63.4033 440.247 70.75C432.774 78.0967 422.641 81.77 409.847 81.77H376.787V123H356.077ZM376.787 65.43H406.047C414.281 65.43 420.487 63.2767 424.667 58.97C428.847 54.6633 430.937 48.8367 430.937 41.49C430.937 33.6367 428.911 27.5567 424.857 23.25C420.931 18.9433 414.977 16.79 406.997 16.79H376.787V65.43ZM468.148 123V0.63999H488.858V107.04H551.558V123H468.148ZM567.972 123V0.63999H653.282V16.79H588.682V53.84H646.252V69.8H588.682V107.04H653.282V123H567.972Z" fill="white"/>
<path d="M161.64 396.8C143.28 396.8 129.54 392 120.42 382.4C111.3 372.68 106.74 357.68 106.74 337.4C106.74 316.28 111.3 300.98 120.42 291.5C129.54 282.02 143.28 277.28 161.64 277.28C180.12 277.28 193.86 282.02 202.86 291.5C211.98 300.98 216.54 316.28 216.54 337.4C216.54 357.68 211.98 372.68 202.86 382.4C193.86 392 180.12 396.8 161.64 396.8ZM161.64 380.24C173.76 380.24 182.64 376.94 188.28 370.34C194.04 363.62 196.92 352.64 196.92 337.4C196.92 321.32 194.04 310.1 188.28 303.74C182.64 297.26 173.76 294.02 161.64 294.02C149.64 294.02 140.76 297.26 135 303.74C129.36 310.1 126.54 321.32 126.54 337.4C126.54 352.64 129.36 363.62 135 370.34C140.76 376.94 149.64 380.24 161.64 380.24ZM235.672 395V279.08H314.512V294.38H255.292V329.48H307.852V344.6H255.292V395H235.672ZM330.067 395V279.08H408.907V294.38H349.687V329.48H402.247V344.6H349.687V395H330.067ZM424.461 395V279.08H444.081V395H424.461ZM521.184 396.8C502.104 396.8 487.644 391.58 477.804 381.14C468.084 370.7 463.224 356.6 463.224 338.84C463.224 326.12 465.264 315.2 469.344 306.08C473.544 296.84 479.904 289.76 488.424 284.84C496.944 279.8 507.804 277.28 521.004 277.28C527.724 277.28 533.844 277.82 539.364 278.9C545.004 279.86 550.224 281.18 555.024 282.86V299.96C550.224 298.04 545.064 296.6 539.544 295.64C534.144 294.56 528.444 294.02 522.444 294.02C508.044 294.02 497.844 297.86 491.844 305.54C485.964 313.22 483.024 324.32 483.024 338.84C483.024 352.4 486.264 362.72 492.744 369.8C499.224 376.76 509.244 380.24 522.804 380.24C528.324 380.24 533.844 379.82 539.364 378.98C545.004 378.02 550.284 376.58 555.204 374.66V391.94C550.404 393.5 545.184 394.7 539.544 395.54C534.024 396.38 527.904 396.8 521.184 396.8ZM574.227 395V279.08H655.047V294.38H593.847V329.48H648.387V344.6H593.847V379.88H655.047V395H574.227Z" fill="white"/>
<path d="M140.133 204.391C140.133 205.734 139.883 206.992 139.383 208.164C138.883 209.32 138.195 210.336 137.32 211.211C136.461 212.07 135.445 212.75 134.273 213.25C133.117 213.75 131.875 214 130.547 214H101.344V209.195H130.547C131.219 209.195 131.844 209.07 132.422 208.82C133 208.57 133.5 208.227 133.922 207.789C134.359 207.352 134.703 206.844 134.953 206.266C135.203 205.672 135.328 205.047 135.328 204.391C135.328 203.734 135.203 203.117 134.953 202.539C134.703 201.961 134.359 201.453 133.922 201.016C133.5 200.578 133 200.234 132.422 199.984C131.844 199.734 131.219 199.609 130.547 199.609H110.953C109.641 199.609 108.398 199.359 107.227 198.859C106.055 198.359 105.031 197.68 104.156 196.82C103.297 195.945 102.609 194.922 102.094 193.75C101.594 192.578 101.344 191.328 101.344 190C101.344 188.688 101.594 187.445 102.094 186.273C102.609 185.102 103.297 184.086 104.156 183.227C105.031 182.352 106.055 181.664 107.227 181.164C108.398 180.648 109.641 180.391 110.953 180.391H137.742V185.195H110.953C110.297 185.195 109.672 185.32 109.078 185.57C108.5 185.82 107.992 186.164 107.555 186.602C107.117 187.039 106.773 187.555 106.523 188.148C106.273 188.727 106.148 189.344 106.148 190C106.148 190.656 106.273 191.281 106.523 191.875C106.773 192.453 107.117 192.961 107.555 193.398C107.992 193.836 108.5 194.18 109.078 194.43C109.672 194.68 110.297 194.805 110.953 194.805H130.547C131.875 194.805 133.117 195.062 134.273 195.578C135.445 196.078 136.461 196.766 137.32 197.641C138.195 198.5 138.883 199.516 139.383 200.688C139.883 201.844 140.133 203.078 140.133 204.391ZM164.016 214H159.211V185.195H142.219V180.391H181.008V185.195H164.016V214ZM225.094 197.195C225.094 199.523 224.727 201.711 223.992 203.758C223.258 205.805 222.211 207.586 220.852 209.102C219.508 210.617 217.891 211.812 216 212.688C214.109 213.562 212.008 214 209.695 214H198.516C196.188 214 194.07 213.562 192.164 212.688C190.258 211.812 188.625 210.617 187.266 209.102C185.922 207.586 184.883 205.805 184.148 203.758C183.414 201.711 183.047 199.523 183.047 197.195C183.047 194.883 183.414 192.711 184.148 190.68C184.883 188.633 185.922 186.852 187.266 185.336C188.625 183.805 190.258 182.602 192.164 181.727C194.07 180.836 196.188 180.391 198.516 180.391H209.695C212.008 180.391 214.109 180.836 216 181.727C217.891 182.602 219.508 183.805 220.852 185.336C222.211 186.852 223.258 188.633 223.992 190.68C224.727 192.711 225.094 194.883 225.094 197.195ZM220.289 197.195C220.289 195.539 220.047 193.984 219.562 192.531C219.078 191.078 218.375 189.812 217.453 188.734C216.547 187.641 215.438 186.781 214.125 186.156C212.828 185.516 211.352 185.195 209.695 185.195H198.516C196.859 185.195 195.367 185.516 194.039 186.156C192.727 186.781 191.609 187.641 190.688 188.734C189.781 189.812 189.078 191.078 188.578 192.531C188.094 193.984 187.852 195.539 187.852 197.195C187.852 198.852 188.094 200.414 188.578 201.883C189.078 203.336 189.781 204.609 190.688 205.703C191.609 206.781 192.727 207.633 194.039 208.258C195.367 208.883 196.859 209.195 198.516 209.195H209.695C211.352 209.195 212.828 208.883 214.125 208.258C215.438 207.633 216.547 206.781 217.453 205.703C218.375 204.609 219.078 203.336 219.562 201.883C220.047 200.414 220.289 198.852 220.289 197.195ZM270.023 214H263.531L253.453 204.391H238.734V199.656H258.023C259.023 199.656 259.961 199.469 260.836 199.094C261.711 198.703 262.469 198.18 263.109 197.523C263.766 196.867 264.281 196.102 264.656 195.227C265.031 194.336 265.219 193.391 265.219 192.391C265.219 191.391 265.031 190.453 264.656 189.578C264.281 188.703 263.766 187.945 263.109 187.305C262.469 186.648 261.711 186.133 260.836 185.758C259.961 185.383 259.023 185.195 258.023 185.195H236.039V214H231.234V180.391H258.023C259.68 180.391 261.234 180.711 262.688 181.352C264.141 181.977 265.406 182.836 266.484 183.93C267.578 185.008 268.438 186.273 269.062 187.727C269.703 189.18 270.023 190.734 270.023 192.391C270.023 193.891 269.766 195.312 269.25 196.656C268.734 197.984 268.023 199.18 267.117 200.242C266.211 201.289 265.141 202.164 263.906 202.867C262.688 203.555 261.367 204.016 259.945 204.25L270.023 214ZM310.945 214H276.188V180.391H310.945V185.195H280.992V209.195H310.945V214ZM306.867 199.609H283.383V194.805H306.867V199.609ZM364.828 214H343.219C341.906 214 340.664 213.75 339.492 213.25C338.336 212.734 337.32 212.047 336.445 211.188C335.586 210.312 334.898 209.297 334.383 208.141C333.883 206.969 333.633 205.719 333.633 204.391C333.633 202.969 333.922 201.641 334.5 200.406C335.078 199.156 335.875 198.086 336.891 197.195C335.875 196.32 335.078 195.266 334.5 194.031C333.922 192.797 333.633 191.453 333.633 190C333.633 188.688 333.883 187.445 334.383 186.273C334.898 185.102 335.586 184.086 336.445 183.227C337.32 182.352 338.336 181.664 339.492 181.164C340.664 180.648 341.906 180.391 343.219 180.391H364.828V185.195H343.219C342.562 185.195 341.945 185.32 341.367 185.57C340.789 185.82 340.281 186.164 339.844 186.602C339.406 187.039 339.062 187.555 338.812 188.148C338.562 188.727 338.438 189.344 338.438 190C338.438 190.656 338.555 191.273 338.789 191.852C339.039 192.414 339.367 192.914 339.773 193.352C340.195 193.773 340.68 194.117 341.227 194.383C341.789 194.648 342.391 194.789 343.031 194.805H343.219H350.438V199.609H343.219C342.562 199.609 341.945 199.734 341.367 199.984C340.789 200.234 340.281 200.578 339.844 201.016C339.406 201.453 339.062 201.961 338.812 202.539C338.562 203.117 338.438 203.734 338.438 204.391C338.438 205.047 338.562 205.672 338.812 206.266C339.062 206.844 339.406 207.352 339.844 207.789C340.281 208.227 340.789 208.57 341.367 208.82C341.945 209.07 342.562 209.195 343.219 209.195H360.023V199.609H355.219V194.805H369.633V199.609H364.828V214ZM430.242 204.391C430.242 205.734 429.992 206.992 429.492 208.164C428.992 209.32 428.305 210.336 427.43 211.211C426.57 212.07 425.555 212.75 424.383 213.25C423.227 213.75 421.984 214 420.656 214H391.453V209.195H420.656C421.328 209.195 421.953 209.07 422.531 208.82C423.109 208.57 423.609 208.227 424.031 207.789C424.469 207.352 424.812 206.844 425.062 206.266C425.312 205.672 425.438 205.047 425.438 204.391C425.438 203.734 425.312 203.117 425.062 202.539C424.812 201.961 424.469 201.453 424.031 201.016C423.609 200.578 423.109 200.234 422.531 199.984C421.953 199.734 421.328 199.609 420.656 199.609H401.062C399.75 199.609 398.508 199.359 397.336 198.859C396.164 198.359 395.141 197.68 394.266 196.82C393.406 195.945 392.719 194.922 392.203 193.75C391.703 192.578 391.453 191.328 391.453 190C391.453 188.688 391.703 187.445 392.203 186.273C392.719 185.102 393.406 184.086 394.266 183.227C395.141 182.352 396.164 181.664 397.336 181.164C398.508 180.648 399.75 180.391 401.062 180.391H427.852V185.195H401.062C400.406 185.195 399.781 185.32 399.188 185.57C398.609 185.82 398.102 186.164 397.664 186.602C397.227 187.039 396.883 187.555 396.633 188.148C396.383 188.727 396.258 189.344 396.258 190C396.258 190.656 396.383 191.281 396.633 191.875C396.883 192.453 397.227 192.961 397.664 193.398C398.102 193.836 398.609 194.18 399.188 194.43C399.781 194.68 400.406 194.805 401.062 194.805H420.656C421.984 194.805 423.227 195.062 424.383 195.578C425.555 196.078 426.57 196.766 427.43 197.641C428.305 198.5 428.992 199.516 429.492 200.688C429.992 201.844 430.242 203.078 430.242 204.391ZM470.648 214H435.891V180.391H470.648V185.195H440.695V209.195H470.648V214ZM466.57 199.609H443.086V194.805H466.57V199.609ZM515.414 214H508.922L498.844 204.391H484.125V199.656H503.414C504.414 199.656 505.352 199.469 506.227 199.094C507.102 198.703 507.859 198.18 508.5 197.523C509.156 196.867 509.672 196.102 510.047 195.227C510.422 194.336 510.609 193.391 510.609 192.391C510.609 191.391 510.422 190.453 510.047 189.578C509.672 188.703 509.156 187.945 508.5 187.305C507.859 186.648 507.102 186.133 506.227 185.758C505.352 185.383 504.414 185.195 503.414 185.195H481.43V214H476.625V180.391H503.414C505.07 180.391 506.625 180.711 508.078 181.352C509.531 181.977 510.797 182.836 511.875 183.93C512.969 185.008 513.828 186.273 514.453 187.727C515.094 189.18 515.414 190.734 515.414 192.391C515.414 193.891 515.156 195.312 514.641 196.656C514.125 197.984 513.414 199.18 512.508 200.242C511.602 201.289 510.531 202.164 509.297 202.867C508.078 203.555 506.758 204.016 505.336 204.25L515.414 214ZM558.328 180.391L540.656 214H535.172L517.523 180.391H522.984L537.914 208.82L552.844 180.391H558.328ZM567.867 214H563.062V180.391H567.867V214ZM611.133 214H589.5C587.172 214 585.055 213.562 583.148 212.688C581.242 211.812 579.609 210.617 578.25 209.102C576.906 207.586 575.867 205.805 575.133 203.758C574.398 201.711 574.031 199.523 574.031 197.195C574.031 194.883 574.398 192.711 575.133 190.68C575.867 188.633 576.906 186.852 578.25 185.336C579.609 183.805 581.242 182.602 583.148 181.727C585.055 180.836 587.172 180.391 589.5 180.391H611.133V185.195H589.5C587.844 185.195 586.352 185.516 585.023 186.156C583.711 186.781 582.594 187.641 581.672 188.734C580.766 189.812 580.062 191.078 579.562 192.531C579.078 193.984 578.836 195.539 578.836 197.195C578.836 198.852 579.078 200.414 579.562 201.883C580.062 203.336 580.766 204.609 581.672 205.703C582.594 206.781 583.711 207.633 585.023 208.258C586.352 208.883 587.844 209.195 589.5 209.195H611.133V214ZM651.727 214H616.969V180.391H651.727V185.195H621.773V209.195H651.727V214ZM647.648 199.609H624.164V194.805H647.648V199.609Z" fill="#37ABF6"/>
<line x1="82" y1="64.5" y2="64.5" stroke="#37ABF6" stroke-width="17"/>
<line x1="757" y1="65.5" x2="675" y2="65.5" stroke="#37ABF6" stroke-width="17"/>
<line x1="757" y1="337.5" x2="675" y2="337.5" stroke="#37ABF6" stroke-width="17"/>
<line x1="82" y1="337.5" y2="337.5" stroke="#37ABF6" stroke-width="17"/>
<line x1="8.5" y1="56" x2="8.5" y2="338" stroke="#37ABF6" stroke-width="17"/>
<line x1="748.5" y1="57" x2="748.5" y2="339" stroke="#37ABF6" stroke-width="17"/>
</svg>
